<?xml version="1.0" encoding="UTF-8"?>
<svg xmlns="http://www.w3.org/2000/svg" xmlns:xlink="http://www.w3.org/1999/xlink" width="168px" height="150px" viewBox="0 0 166 150" version="1.1">
<g id="surface1">
<path style=" stroke:none;fill-rule:evenodd;fill:rgb(83.137256%,5.098039%,60.392159%);fill-opacity:1;" d="M 117.03125 9.253906 C 121.179688 7.953125 125.25 8.15625 129.246094 9.855469 C 132.246094 10.957031 135.320312 12.941406 138.46875 15.792969 C 141.117188 18.351562 143.265625 20.90625 144.914062 23.464844 C 146.863281 26.875 147.863281 30.007812 147.914062 32.859375 C 148.066406 35.96875 147.265625 38.925781 145.515625 41.734375 C 144.265625 43.789062 142.441406 45.792969 140.042969 47.746094 C 137.042969 50.152344 133.195312 52.433594 128.5 54.589844 C 123.199219 56.84375 116.957031 58.773438 109.757812 60.378906 C 107.058594 60.929688 104.535156 61.378906 102.1875 61.734375 C 107.234375 63.535156 111.808594 66.09375 115.902344 69.402344 C 119.601562 72.457031 122.675781 76.246094 125.125 80.753906 C 127.273438 84.8125 128.699219 89.097656 129.398438 93.609375 C 130.898438 102.882812 130.398438 110.929688 127.898438 117.746094 C 127.148438 119.699219 126.296875 121.378906 125.351562 122.78125 C 128.097656 125.738281 129.820312 128.144531 130.523438 130 C 130.871094 131.050781 130.898438 131.753906 130.597656 132.101562 C 130.246094 132.40625 129.546875 132.355469 128.5 131.953125 C 126.699219 131.351562 124.375 129.722656 121.527344 127.066406 L 121.304688 127.214844 C 119.652344 128.519531 118.003906 129.421875 116.355469 129.925781 C 114.507812 130.578125 112.757812 130.925781 111.109375 130.976562 C 108.160156 131.023438 104.960938 130.324219 101.511719 128.875 C 99.164062 127.820312 96.714844 126.363281 94.167969 124.511719 C 90.769531 122.058594 87.195312 118.746094 83.449219 114.589844 C 78.699219 109.121094 74.550781 103.261719 71.003906 96.996094 C 69.65625 94.589844 68.304688 91.859375 66.957031 88.800781 C 66.957031 93.210938 66.253906 98.800781 64.859375 105.566406 C 63.308594 112.53125 61.359375 118.773438 59.011719 124.285156 C 57.011719 128.894531 54.738281 132.78125 52.1875 135.9375 C 50.441406 138.144531 48.441406 139.921875 46.191406 141.277344 C 43.445312 143.082031 40.445312 143.910156 37.195312 143.757812 C 34.148438 143.507812 31.097656 142.429688 28.050781 140.527344 C 26.101562 139.421875 23.550781 137.265625 20.402344 134.058594 C 17.503906 130.800781 15.53125 127.695312 14.480469 124.738281 C 12.933594 120.777344 12.757812 116.691406 13.957031 112.484375 C 14.90625 108.972656 17.03125 105.3125 20.328125 101.503906 C 22.828125 98.648438 26.027344 95.765625 29.921875 92.859375 C 35.871094 88.449219 43.816406 83.8125 53.761719 78.949219 L 54.585938 78.5 L 54.363281 78.5 C 50.0625 77.847656 46.066406 75.742188 42.367188 72.183594 C 40.167969 69.828125 38.394531 67.296875 37.042969 64.59375 C 35.394531 60.785156 34.671875 57.148438 34.871094 53.691406 L 34.945312 53.089844 C 32.949219 51.734375 30.871094 51.234375 28.722656 51.585938 C 28.523438 51.535156 28.300781 51.558594 28.050781 51.660156 C 27.601562 51.8125 27.347656 51.886719 27.300781 51.886719 L 26.101562 52.1875 C 25.902344 52.285156 25.300781 52.5625 24.300781 53.011719 C 23.550781 53.515625 22.902344 53.8125 22.351562 53.914062 L 21.753906 53.992188 C 21.652344 53.890625 21.601562 53.691406 21.601562 53.390625 C 21.601562 52.789062 21.851562 51.964844 22.351562 50.910156 C 22.851562 50.207031 23.402344 49.558594 24.003906 48.957031 C 24.050781 48.90625 24.527344 48.554688 25.425781 47.902344 C 25.828125 47.652344 26.125 47.476562 26.328125 47.375 C 26.726562 47.125 27.078125 46.976562 27.375 46.925781 C 28.625 46.574219 29.5 46.375 30 46.324219 L 33 46.324219 C 34.148438 46.523438 35.199219 46.824219 36.148438 47.226562 C 36.699219 45.671875 37.796875 43.691406 39.445312 41.289062 C 40.996094 39.132812 42.71875 37.375 44.617188 36.027344 C 45.816406 35.171875 46.789062 34.597656 47.539062 34.296875 C 47.039062 32.441406 47.089844 30.613281 47.691406 28.808594 C 48.191406 26.957031 49.039062 25.425781 50.242188 24.222656 C 51.839844 22.515625 53.640625 21.617188 55.636719 21.515625 C 56.636719 21.464844 57.4375 21.613281 58.035156 21.964844 L 58.410156 22.339844 L 58.113281 22.871094 C 58.011719 23.019531 57.511719 23.445312 56.613281 24.148438 C 55.265625 25.453125 54.390625 26.503906 53.988281 27.304688 C 52.839844 29.109375 52.515625 30.9375 53.015625 32.792969 C 55.816406 32.492188 58.636719 32.867188 61.488281 33.921875 C 64.234375 35.023438 66.785156 36.605469 69.132812 38.660156 C 71.53125 40.8125 73.457031 43.390625 74.90625 46.398438 C 76.554688 49.558594 77.453125 52.890625 77.605469 56.398438 C 77.703125 57.25 77.628906 58.355469 77.378906 59.707031 L 80.527344 58.957031 C 80.480469 58.050781 80.65625 56.851562 81.054688 55.347656 C 81.605469 53.390625 82.378906 51.335938 83.378906 49.183594 C 88.226562 39.207031 92.875 31.1875 97.320312 25.125 C 100.269531 21.210938 103.167969 18.007812 106.019531 15.5 C 109.65625 12.339844 113.332031 10.257812 117.03125 9.253906 Z M 127.300781 14.820312 C 124.351562 13.714844 121.378906 13.617188 118.378906 14.519531 C 115.679688 15.269531 112.757812 17.050781 109.609375 19.859375 C 107.109375 22.011719 104.511719 24.945312 101.8125 28.652344 C 97.8125 34.167969 93.417969 41.835938 88.617188 51.65625 C 87.570312 53.863281 86.46875 55.769531 85.320312 57.375 C 85.019531 57.777344 84.746094 58.152344 84.496094 58.5 L 86.59375 58.578125 C 90.390625 58.726562 94.0625 59.28125 97.613281 60.230469 C 102.0625 59.328125 105.933594 58.425781 109.234375 57.523438 C 115.980469 55.570312 121.902344 53.339844 127 50.835938 C 131.199219 48.777344 134.648438 46.574219 137.34375 44.21875 C 141.542969 40.457031 143.441406 36.671875 143.042969 32.863281 C 142.894531 30.8125 142.042969 28.527344 140.492188 26.023438 C 139.394531 24.269531 137.523438 22.113281 134.871094 19.558594 C 132.222656 17.25 129.699219 15.671875 127.300781 14.820312 Z M 85.019531 75.867188 C 83.820312 76.917969 82.71875 77.996094 81.722656 79.097656 L 79.472656 81.429688 C 77.972656 83.183594 76.972656 84.035156 76.476562 83.984375 C 76.375 83.984375 76.324219 83.734375 76.324219 83.234375 C 76.371094 82.480469 76.625 81.355469 77.074219 79.851562 C 77.324219 79.199219 77.824219 78.144531 78.570312 76.691406 C 79.472656 75.238281 80.472656 73.835938 81.570312 72.484375 C 83.171875 70.527344 85.917969 67.921875 89.816406 64.664062 L 79.546875 63.988281 C 77.945312 63.835938 75.824219 63.636719 73.175781 63.386719 C 72.675781 62.882812 72.324219 61.910156 72.125 60.457031 L 71.824219 56.695312 C 71.726562 54.039062 71.050781 51.457031 69.800781 48.953125 C 68.652344 46.648438 67.128906 44.59375 65.230469 42.789062 C 63.378906 41.132812 61.402344 39.902344 59.304688 39.101562 C 57.105469 38.351562 55.007812 38.101562 53.007812 38.351562 C 49.511719 38.753906 46.363281 40.804688 43.5625 44.515625 C 42.363281 46.070312 41.441406 47.625 40.789062 49.179688 C 40.238281 50.582031 39.890625 52.210938 39.742188 54.066406 C 39.339844 59.730469 41.191406 64.867188 45.285156 69.480469 C 48.1875 72.734375 51.433594 74.816406 55.03125 75.714844 C 57.480469 76.367188 59.90625 76.394531 62.304688 75.792969 L 64.480469 75.417969 L 64.777344 78.273438 C 66.578125 83.535156 69.5 89.351562 73.550781 95.714844 C 77.546875 101.78125 81.871094 107.242188 86.515625 112.105469 C 88.515625 114.109375 90.367188 115.863281 92.0625 117.367188 C 92.164062 116.066406 92.316406 115.015625 92.515625 114.210938 C 93.414062 110.25 95.488281 106.0625 98.734375 101.652344 C 101.082031 98.394531 103.683594 95.613281 106.53125 93.308594 C 111.03125 89.648438 115.554688 87.195312 120.101562 85.941406 C 120.5 85.84375 120.925781 85.789062 121.375 85.789062 C 120.875 84.6875 120.453125 83.863281 120.101562 83.308594 C 118.75 80.707031 117.003906 78.296875 114.851562 76.089844 C 114.253906 76.246094 113.429688 76.417969 112.378906 76.621094 C 108.582031 77.21875 104.960938 78.699219 101.507812 81.054688 C 99.460938 82.40625 97.164062 84.339844 94.613281 86.84375 C 93.015625 88.496094 90.664062 91.453125 87.566406 95.714844 C 86.367188 97.566406 85.46875 98.820312 84.867188 99.472656 L 84.191406 100.074219 C 84.09375 99.976562 84.042969 99.671875 84.042969 99.171875 C 84.042969 97.96875 84.367188 96.367188 85.015625 94.359375 C 86.417969 90.550781 88.417969 86.992188 91.011719 83.683594 C 93.164062 80.925781 95.613281 78.519531 98.359375 76.464844 C 101.808594 74.058594 105.28125 72.332031 108.78125 71.277344 C 105.378906 69.074219 101.484375 67.34375 97.085938 66.09375 L 96.933594 66.167969 C 95.335938 67.46875 93.035156 69.324219 90.039062 71.730469 C 87.695312 73.585938 86.019531 74.964844 85.019531 75.867188 Z M 121.601562 91.503906 C 117.902344 92.507812 114.007812 94.511719 109.910156 97.519531 C 107.160156 99.773438 104.660156 102.183594 102.414062 104.738281 C 99.261719 108.445312 96.890625 111.957031 95.289062 115.261719 L 93.714844 118.269531 L 93.640625 118.644531 C 93.839844 118.84375 94.941406 119.648438 96.9375 121.050781 C 99.289062 122.605469 101.484375 123.808594 103.535156 124.660156 C 106.382812 125.816406 108.882812 126.3125 111.03125 126.164062 C 113.878906 125.914062 116.304688 124.910156 118.304688 123.15625 C 120.300781 121.503906 121.878906 119.019531 123.027344 115.714844 C 125.125 109.75 125.449219 102.65625 124 94.4375 L 123.027344 90.679688 C 122.625 91.078125 122.152344 91.355469 121.601562 91.503906 Z M 65.980469 86.542969 C 65.027344 83.988281 64.328125 81.558594 63.878906 79.25 C 62.382812 80.804688 59.832031 82.433594 56.234375 84.136719 C 46.6875 88.800781 38.992188 93.234375 33.144531 97.445312 C 29.445312 100.300781 26.523438 102.910156 24.375 105.261719 C 21.722656 108.371094 20 111.328125 19.203125 114.132812 C 18.300781 117.242188 18.425781 120.226562 19.578125 123.078125 C 20.375 125.4375 21.949219 127.964844 24.296875 130.675781 C 26.898438 133.382812 29.070312 135.285156 30.820312 136.390625 C 33.21875 137.894531 35.519531 138.71875 37.71875 138.867188 C 39.917969 138.917969 41.992188 138.367188 43.941406 137.214844 C 45.640625 136.210938 47.3125 134.78125 48.964844 132.929688 C 51.363281 129.972656 53.535156 126.488281 55.484375 122.480469 C 57.933594 117.464844 60.15625 111.550781 62.15625 104.734375 C 63.707031 98.871094 64.980469 92.855469 65.980469 86.691406 Z M 65.980469 86.542969 "/>
</g>
</svg>
